<?xml version="1.0" encoding="utf-8"?>
<!-- Generator: Adobe Illustrator 19.1.0, SVG Export Plug-In . SVG Version: 6.00 Build 0)  -->
<svg version="1.1" id="Layer_1" xmlns="http://www.w3.org/2000/svg" xmlns:xlink="http://www.w3.org/1999/xlink" x="0px" y="0px"
	 viewBox="0 0 34 34" style="enable-background:new 0 0 34 34;" xml:space="preserve">
<style type="text/css">
	.st0{fill:#517FA4;}
	.st1{fill:#CD2027;}
	.st2{fill:#BF0000;}
	.st3{fill:#FFFFFF;}
</style>
<g>
	<path class="st0" d="M17,13.8c-1.8,0-3.2,1.4-3.3,3.2c0,1.8,1.4,3.2,3.2,3.2c1.8,0,3.2-1.4,3.2-3.2C20.2,15.2,18.8,13.8,17,13.8z
		 M21.7,9.2c-1.6-0.2-3.1,0-4.7-0.1c0,0.1,0,0,0,0c-1.5,0-2.9-0.1-4.4,0c-2.1,0.1-3.4,1.4-3.5,3.5c-0.1,2.9-0.1,5.8,0,8.8
		c0.1,2,1.4,3.4,3.5,3.4c2.9,0.1,5.8,0.1,8.7,0c2.1-0.1,3.4-1.4,3.5-3.5c0.1-2.9,0.1-5.8,0-8.7C24.8,10.7,23.6,9.4,21.7,9.2z
		 M17,21.9c-2.8,0-5-2.2-5-4.9c0-2.8,2.2-5,4.9-5c2.8,0,5,2.2,5,5C22,19.7,19.7,21.9,17,21.9z M22.1,13c-0.6,0-1.2-0.6-1.2-1.2
		c0-0.6,0.5-1.1,1.2-1.1c0.7,0,1.2,0.5,1.1,1.2C23.3,12.5,22.8,13,22.1,13z M17,0C7.6,0,0,7.6,0,17c0,9.4,7.6,17,17,17
		c9.4,0,17-7.6,17-17C34,7.6,26.4,0,17,0z M26.7,20.7c0,0.3-0.1,0.6-0.1,0.9c-0.1,2.5-1.7,4.3-4.1,4.9c-0.6,0.1-1.2,0.2-1.9,0.3
		c-2.5,0-5,0-7.5,0c-0.3,0-0.5-0.1-0.8-0.1c-2.8-0.2-5-2.2-5-5c-0.1-3-0.1-6.1,0-9.1c0.1-2.8,2.2-4.9,5-5c3-0.1,6.1-0.1,9.1,0
		c2.5,0.1,4.3,1.7,4.9,4c0.1,0.6,0.2,1.2,0.3,1.8C26.7,15.7,26.7,18.2,26.7,20.7z"/>
</g>
<g>
	<path class="st1" d="M-7-118.7c-9.4,0-17,7.6-17,17c0,9.4,7.6,17,17,17c9.4,0,17-7.6,17-17C10-111.1,2.4-118.7-7-118.7z
		 M-0.2-100.1c-0.8,1.6-2.1,2.7-3.9,3.1c-1.1,0.2-2.1,0.3-3.1-0.3c-0.4-0.2-0.7-0.5-1.1-0.7c-0.1,0-0.1-0.1-0.3-0.2
		c0,0.2-0.1,0.3-0.1,0.4c-0.3,1.1-0.6,2.3-0.9,3.4c-0.4,1-0.9,2-1.8,2.7c0,0-0.1,0.1-0.1,0.1c0,0-0.1,0.1-0.2,0.1
		c0-0.5-0.1-0.9-0.1-1.4c-0.1-1.8,0.2-3.5,0.7-5.2c0.3-1.3,0.7-2.6,1-3.9c0-0.1,0-0.3,0-0.4c-0.5-1.2-0.5-2.3,0-3.4
		c0.3-0.6,0.6-1.1,1.3-1.4c0.8-0.3,2.1,0,2.3,1.1c0.1,0.4,0,0.8-0.1,1.2c-0.2,0.9-0.5,1.7-0.7,2.6c-0.1,0.5-0.2,1-0.3,1.5
		c-0.1,0.8,0.4,1.3,1.1,1.5c1.3,0.4,2.3-0.1,3.1-1c0.6-0.7,1-1.5,1.2-2.4c0.3-1,0.4-2,0.3-3c-0.2-2.1-1.3-3.5-3.5-4.1
		c-1.2-0.3-2.4-0.1-3.6,0.3c-1,0.4-1.8,1-2.4,1.7c-1.1,1.4-1.6,2.9-1.1,4.6c0.1,0.3,0.3,0.6,0.5,1c0.4,0.7,0.3,1.4-0.1,2
		c-1.1-0.3-2-0.8-2.4-1.9c-0.5-1.2-0.5-2.4-0.3-3.6c0.2-1.6,1-2.9,2.2-4c1.4-1.3,3-2,4.9-2.2c1.5-0.1,2.9,0,4.3,0.5
		c1.2,0.4,2.2,1,3,2c0.8,0.9,1.3,2,1.4,3.2C1-103.8,0.8-101.9-0.2-100.1z"/>
</g>
<g>
	<path class="st2" d="M39.6-119.3c-9.4,0-17,7.6-17,17c0,9.4,7.6,17,17,17c9.4,0,17-7.6,17-17C56.7-111.7,49-119.3,39.6-119.3z"/>
	<g>
		<g id="Lozenge">
			<g>
				<path class="st3" d="M48.7-106c0,0-0.2-1.3-0.7-1.8c-0.7-0.7-1.5-0.7-1.8-0.8c-2.6-0.2-6.4-0.2-6.4-0.2h0c0,0-3.8,0-6.4,0.2
					c-0.4,0-1.1,0-1.8,0.8c-0.5,0.6-0.7,1.8-0.7,1.8s-0.2,1.5-0.2,2.9v1.4c0,1.5,0.2,2.9,0.2,2.9s0.2,1.3,0.7,1.8
					c0.7,0.7,1.6,0.7,2,0.8c1.5,0.1,6.2,0.2,6.2,0.2s3.9,0,6.4-0.2c0.4,0,1.1,0,1.8-0.8c0.5-0.6,0.7-1.8,0.7-1.8s0.2-1.5,0.2-2.9
					v-1.4C48.8-104.5,48.7-106,48.7-106z M37.2-99.2l0-6l5.8,3L37.2-99.2z"/>
			</g>
		</g>
	</g>
</g>
</svg>
